<svg width="34" height="34" viewBox="0 0 34 34" fill="none" xmlns="http://www.w3.org/2000/svg">
<path d="M16.9948 20.8705C19.296 20.8705 21.1615 19.0059 21.1615 16.7058C21.1615 14.4056 19.296 12.541 16.9948 12.541C14.6936 12.541 12.8281 14.4056 12.8281 16.7058C12.8281 19.0059 14.6936 20.8705 16.9948 20.8705Z" fill="#F9F6FF"/>
<path d="M22.7266 3.69092H11.2682C9.33436 3.69092 7.4797 4.45879 6.11224 5.82562C4.74479 7.19245 3.97656 9.04627 3.97656 10.9793V22.4324C3.97656 24.3653 4.74479 26.2192 6.11224 27.586C7.4797 28.9528 9.33436 29.7207 11.2682 29.7207H22.7266C24.6604 29.7207 26.5151 28.9528 27.8826 27.586C29.25 26.2192 30.0182 24.3653 30.0182 22.4324V10.9793C30.0182 9.04627 29.25 7.19245 27.8826 5.82562C26.5151 4.45879 24.6604 3.69092 22.7266 3.69092ZM16.9974 22.9529C15.7613 22.9529 14.5529 22.5866 13.5251 21.9001C12.4973 21.2137 11.6962 20.238 11.2231 19.0965C10.7501 17.955 10.6263 16.6989 10.8675 15.487C11.1086 14.2752 11.7039 13.1621 12.578 12.2884C13.4521 11.4147 14.5657 10.8197 15.7781 10.5787C16.9905 10.3376 18.2471 10.4614 19.3892 10.9342C20.5312 11.407 21.5073 12.2077 22.1941 13.2351C22.8808 14.2624 23.2474 15.4702 23.2474 16.7058C23.2474 18.3626 22.5889 19.9516 21.4168 21.1232C20.2447 22.2948 18.655 22.9529 16.9974 22.9529ZM23.7682 11.4998C23.4592 11.4998 23.1571 11.4083 22.9002 11.2366C22.6432 11.065 22.4429 10.8211 22.3247 10.5357C22.2064 10.2504 22.1755 9.93633 22.2358 9.63337C22.296 9.33042 22.4449 9.05213 22.6634 8.83371C22.8819 8.61529 23.1603 8.46655 23.4634 8.40628C23.7665 8.34602 24.0807 8.37695 24.3662 8.49516C24.6517 8.61337 24.8957 8.81355 25.0674 9.07038C25.2391 9.32721 25.3307 9.62917 25.3307 9.93806C25.3307 10.3523 25.1661 10.7495 24.8731 11.0424C24.5801 11.3353 24.1826 11.4998 23.7682 11.4998Z" fill="#F9F6FF"/>
</svg>
