<svg width="34" height="34" viewBox="0 0 34 34" fill="none" xmlns="http://www.w3.org/2000/svg">
<path d="M27.9427 3.69141H6.06771C5.51517 3.69141 4.98527 3.9108 4.59457 4.30132C4.20387 4.69184 3.98438 5.22151 3.98438 5.77379V27.6388C3.98438 28.1911 4.20387 28.7207 4.59457 29.1113C4.98527 29.5018 5.51517 29.7212 6.06771 29.7212H27.9427C28.4952 29.7212 29.0251 29.5018 29.4158 29.1113C29.8065 28.7207 30.026 28.1911 30.026 27.6388V5.77379C30.026 5.22151 29.8065 4.69184 29.4158 4.30132C29.0251 3.9108 28.4952 3.69141 27.9427 3.69141ZM12.8385 22.9534C12.8385 23.2296 12.7288 23.4944 12.5334 23.6897C12.3381 23.8849 12.0731 23.9946 11.7969 23.9946C11.5206 23.9946 11.2557 23.8849 11.0603 23.6897C10.865 23.4944 10.7552 23.2296 10.7552 22.9534V14.6239C10.7552 14.3478 10.865 14.0829 11.0603 13.8877C11.2557 13.6924 11.5206 13.5827 11.7969 13.5827C12.0731 13.5827 12.3381 13.6924 12.5334 13.8877C12.7288 14.0829 12.8385 14.3478 12.8385 14.6239V22.9534ZM11.7969 12.0209C11.4878 12.0209 11.1857 11.9293 10.9288 11.7577C10.6718 11.5861 10.4716 11.3422 10.3533 11.0568C10.2351 10.7714 10.2041 10.4574 10.2644 10.1545C10.3247 9.8515 10.4735 9.57322 10.692 9.3548C10.9105 9.13638 11.189 8.98763 11.492 8.92737C11.7951 8.86711 12.1093 8.89804 12.3948 9.01624C12.6803 9.13445 12.9244 9.33463 13.096 9.59146C13.2677 9.8483 13.3594 10.1503 13.3594 10.4591C13.3594 10.8734 13.1948 11.2706 12.9017 11.5635C12.6087 11.8564 12.2113 12.0209 11.7969 12.0209ZM24.2969 22.9534C24.2969 23.2296 24.1871 23.4944 23.9918 23.6897C23.7964 23.8849 23.5315 23.9946 23.2552 23.9946C22.9789 23.9946 22.714 23.8849 22.5186 23.6897C22.3233 23.4944 22.2135 23.2296 22.2135 22.9534V18.2681C22.2135 17.5777 21.9392 16.9156 21.4508 16.4275C20.9624 15.9393 20.3 15.6651 19.6094 15.6651C18.9187 15.6651 18.2563 15.9393 17.768 16.4275C17.2796 16.9156 17.0052 17.5777 17.0052 18.2681V22.9534C17.0052 23.2296 16.8955 23.4944 16.7001 23.6897C16.5048 23.8849 16.2398 23.9946 15.9635 23.9946C15.6873 23.9946 15.4223 23.8849 15.227 23.6897C15.0316 23.4944 14.9219 23.2296 14.9219 22.9534V14.6239C14.9212 14.3677 15.015 14.1202 15.1854 13.9288C15.3559 13.7374 15.5909 13.6155 15.8456 13.5865C16.1003 13.5575 16.3568 13.6234 16.5659 13.7716C16.7751 13.9197 16.9222 14.1398 16.9792 14.3896C17.684 13.9121 18.5057 13.6354 19.356 13.5894C20.2062 13.5434 21.053 13.7297 21.8053 14.1285C22.5576 14.5272 23.187 15.1232 23.626 15.8526C24.065 16.5819 24.2969 17.4169 24.2969 18.2681V22.9534Z" fill="#F9F6FF"/>
</svg>
