<svg width="27" height="28" viewBox="0 0 27 28" fill="none" xmlns="http://www.w3.org/2000/svg">
<path d="M5.83594 24.7336H20.8359" stroke="#F9F6FF" stroke-width="1.33333" stroke-linecap="round" stroke-linejoin="round"/>
<path d="M13.3333 14.7381C15.1743 14.7381 16.6667 13.2464 16.6667 11.4063C16.6667 9.56616 15.1743 8.07446 13.3333 8.07446C11.4924 8.07446 10 9.56616 10 11.4063C10 13.2464 11.4924 14.7381 13.3333 14.7381Z" stroke="#F9F6FF" stroke-width="1.33333" stroke-linecap="round" stroke-linejoin="round"/>
<path d="M21.6667 11.4064C21.6667 18.903 13.3333 24.7337 13.3333 24.7337C13.3333 24.7337 5 18.903 5 11.4064C5 9.1973 5.87797 7.07865 7.44078 5.51657C9.00358 3.95448 11.1232 3.0769 13.3333 3.0769C15.5435 3.0769 17.6631 3.95448 19.2259 5.51657C20.7887 7.07865 21.6667 9.1973 21.6667 11.4064V11.4064Z" stroke="#F9F6FF" stroke-width="1.33333" stroke-linecap="round" stroke-linejoin="round"/>
</svg>
