<svg width="27" height="28" viewBox="0 0 27 28" fill="none" xmlns="http://www.w3.org/2000/svg">
<path d="M9.63281 13.5155C10.4903 15.2855 11.9223 16.7131 13.6953 17.5657C13.8261 17.6276 13.9708 17.6544 14.1151 17.6435C14.2593 17.6325 14.3983 17.5842 14.5182 17.5032L17.1224 15.7645C17.2375 15.6865 17.3704 15.6389 17.5088 15.6261C17.6473 15.6134 17.7867 15.6359 17.9141 15.6916L22.7891 17.7844C22.9557 17.8537 23.0949 17.9758 23.1852 18.132C23.2756 18.2881 23.3121 18.4696 23.2891 18.6486C23.1346 19.854 22.5459 20.9618 21.6333 21.7648C20.7206 22.5678 19.5466 23.0109 18.3307 23.0111C14.5735 23.0111 10.9701 21.5193 8.31338 18.8637C5.65662 16.2082 4.16406 12.6065 4.16406 8.85096C4.16434 7.63567 4.60762 6.46213 5.41096 5.54992C6.21431 4.6377 7.32267 4.04933 8.52865 3.89489C8.70764 3.87191 8.88924 3.90838 9.04546 3.99868C9.20169 4.08899 9.32388 4.22812 9.39323 4.39466L11.487 9.27784C11.5414 9.40315 11.5642 9.53992 11.5533 9.67609C11.5424 9.81227 11.4982 9.94368 11.4245 10.0587L9.6849 12.7034C9.60745 12.823 9.56199 12.9604 9.55288 13.1026C9.54376 13.2448 9.57128 13.387 9.63281 13.5155V13.5155Z" stroke="#F9F6FF" stroke-width="1.33333" stroke-linecap="round" stroke-linejoin="round"/>
</svg>
