<svg width="34" height="34" viewBox="0 0 34 34" fill="none" xmlns="http://www.w3.org/2000/svg">
<path d="M31.9914 10.1597L28.0591 14.0771C27.2779 23.1745 19.5956 30.2416 10.4159 30.2416C8.52785 30.2416 6.96535 29.9423 5.78046 29.3566C4.82994 28.8751 4.43931 28.3675 4.33514 28.2113C4.24896 28.0805 4.19342 27.9319 4.17268 27.7766C4.15193 27.6213 4.1665 27.4634 4.21531 27.3145C4.26412 27.1656 4.34591 27.0297 4.45458 26.9168C4.56325 26.8039 4.69601 26.717 4.84296 26.6625C4.869 26.6495 7.94192 25.4782 9.9341 23.2266C8.69861 22.3473 7.61269 21.2751 6.71796 20.051C4.9341 17.6302 3.04608 13.4264 4.17889 7.15322C4.21451 6.96673 4.29984 6.79331 4.4259 6.65128C4.55195 6.50925 4.71404 6.40388 4.89504 6.3463C5.07662 6.28687 5.27106 6.27851 5.45707 6.32212C5.64309 6.36573 5.81353 6.45965 5.94973 6.59358C5.98879 6.64564 10.3247 10.9145 15.6242 12.2941V11.5002C15.6293 10.6747 15.7971 9.85825 16.1179 9.09753C16.4386 8.33681 16.9062 7.64669 17.4938 7.06659C18.0814 6.48649 18.7776 6.02775 19.5426 5.71658C20.3076 5.40542 21.1264 5.24791 21.9523 5.25305C23.0363 5.2685 24.0978 5.56434 25.0334 6.11175C25.9689 6.65915 26.7467 7.43945 27.2909 8.37662H31.2492C31.4549 8.37598 31.6561 8.4362 31.8276 8.54969C31.999 8.66317 32.1331 8.82485 32.2128 9.01435C32.2878 9.20667 32.3068 9.4163 32.2677 9.61898C32.2285 9.82167 32.1327 10.0091 31.9914 10.1597Z" fill="#F9F6FF"/>
</svg>
