<svg width="34" height="34" viewBox="0 0 34 34" fill="none" xmlns="http://www.w3.org/2000/svg">
<path d="M33.6615 16.885C33.6532 20.9881 32.1586 24.947 29.4584 28.0185C26.7582 31.09 23.038 33.0627 18.9964 33.5662C18.9062 33.5751 18.8152 33.5652 18.729 33.5369C18.6428 33.5087 18.5633 33.4628 18.4956 33.4021C18.4279 33.3415 18.3733 33.2673 18.3354 33.1844C18.2975 33.1015 18.277 33.0116 18.2752 32.9203V20.7606H22.1218C22.2971 20.7609 22.4706 20.725 22.6317 20.6551C22.7927 20.5852 22.9378 20.4828 23.0579 20.3541C23.1781 20.2255 23.2708 20.0733 23.3303 19.9072C23.3898 19.741 23.4149 19.5643 23.4039 19.388C23.3756 19.0539 23.2225 18.7431 22.9756 18.5184C22.7287 18.2936 22.4064 18.1715 22.0737 18.1768H18.2752V14.3012C18.2752 13.616 18.5454 12.9588 19.0263 12.4743C19.5072 11.9897 20.1594 11.7175 20.8396 11.7175H23.4039C23.5793 11.7178 23.7528 11.682 23.9139 11.612C24.0749 11.5421 24.22 11.4397 24.3401 11.311C24.4603 11.1824 24.553 11.0303 24.6125 10.8641C24.672 10.6979 24.6971 10.5212 24.6861 10.3449C24.6578 10.0108 24.5047 9.70007 24.2578 9.47529C24.0109 9.25051 23.6886 9.12846 23.3559 9.13377H20.8396C19.4793 9.13377 18.1748 9.67819 17.213 10.6473C16.2512 11.6164 15.7108 12.9307 15.7108 14.3012V18.1768H11.8642C11.6889 18.1765 11.5153 18.2124 11.3543 18.2823C11.1933 18.3522 11.0482 18.4547 10.928 18.5833C10.8079 18.7119 10.7152 18.8641 10.6556 19.0302C10.5961 19.1964 10.5711 19.3731 10.582 19.5494C10.6104 19.8835 10.7635 20.1943 11.0104 20.419C11.2573 20.6438 11.5796 20.7659 11.9123 20.7606H15.7108V32.9203C15.7113 33.0108 15.6928 33.1004 15.6567 33.1833C15.6205 33.2662 15.5675 33.3405 15.501 33.4015C15.4345 33.4624 15.356 33.5085 15.2707 33.5369C15.1853 33.5653 15.095 33.5753 15.0056 33.5662C6.54315 32.5327 0.00398061 25.1206 0.340555 16.2552C0.529491 11.877 2.40945 7.74667 5.57916 4.74579C8.74886 1.7449 12.9572 0.111194 17.3059 0.193387C21.6546 0.275581 25.7992 2.06716 28.855 5.18571C31.9107 8.30427 33.6356 12.5027 33.6615 16.885Z" fill="#F9F6FF"/>
</svg>
