<svg width="34" height="34" viewBox="0 0 34 34" fill="none" xmlns="http://www.w3.org/2000/svg">
<g clip-path="url(#clip0_1239_4679)">
<path d="M30.5104 9.13107C30.3907 8.65124 30.1564 8.20757 29.8276 7.83809C29.4988 7.46861 29.0852 7.18434 28.6224 7.00964C24.1693 5.29168 17.0599 5.30469 16.6693 5.30469C16.2786 5.30469 9.16927 5.29168 4.71615 7.00964C4.25331 7.18434 3.83975 7.46861 3.51092 7.83809C3.1821 8.20757 2.9478 8.65124 2.82813 9.13107C2.48958 10.4195 2.08594 12.7882 2.08594 16.7057C2.08594 20.6232 2.48958 22.9919 2.82813 24.2804C2.9478 24.7602 3.1821 25.2039 3.51092 25.5734C3.83975 25.9428 4.25331 26.2271 4.71615 26.4018C8.98698 28.0547 15.6797 28.1068 16.5781 28.1068H16.7604C17.6589 28.1068 24.3516 28.0547 28.6224 26.4018C29.0852 26.2271 29.4988 25.9428 29.8276 25.5734C30.1564 25.2039 30.3907 24.7602 30.5104 24.2804C30.849 22.9919 31.2526 20.6232 31.2526 16.7057C31.2526 12.7882 30.849 10.4195 30.5104 9.13107ZM21.1224 17.1352L14.8724 21.3C14.7895 21.361 14.6888 21.393 14.5859 21.3911C14.4997 21.3879 14.4152 21.3657 14.3385 21.326C14.2553 21.2827 14.1857 21.2173 14.1374 21.1369C14.0892 21.0565 14.0641 20.9643 14.0651 20.8705V12.541C14.0641 12.4472 14.0892 12.355 14.1374 12.2746C14.1857 12.1942 14.2553 12.1287 14.3385 12.0854C14.4216 12.0412 14.5151 12.0202 14.6091 12.0248C14.7031 12.0294 14.7941 12.0593 14.8724 12.1115L21.1224 16.2762C21.195 16.322 21.2549 16.3853 21.2963 16.4604C21.3378 16.5355 21.3596 16.6199 21.3596 16.7057C21.3596 16.7915 21.3378 16.8759 21.2963 16.951C21.2549 17.0261 21.195 17.0895 21.1224 17.1352Z" fill="#F9F6FF"/>
</g>
<defs>
<clipPath id="clip0_1239_4679">
<rect width="33.3333" height="33.3181" fill="white" transform="translate(0 0.046875)"/>
</clipPath>
</defs>
</svg>
